<mxfile host="app.diagrams.net" modified="2023-05-23T16:09:26.617Z" agent="Mozilla/5.0 (Windows NT 10.0; Win64; x64) AppleWebKit/537.36 (KHTML, like Gecko) Chrome/112.0.0.0 Safari/537.36" version="21.3.3" etag="ch5bcgvdTdAWbr0FtNm2" type="github">
  <diagram name="PÃ¡gina-1" id="euuejcCc-0kiBWGVf3fo">
    <mxGraphModel>
      <root>
        <mxCell id="0" />
        <mxCell id="1" parent="0" />
      </root>
    </mxGraphModel>
  </diagram>
</mxfile>
